<?xml version="1.0" encoding="UTF-8" standalone="no"?>
<!DOCTYPE svg PUBLIC "-//W3C//DTD SVG 1.1//EN" "http://www.w3.org/Graphics/SVG/1.1/DTD/svg11.dtd">
<svg version="1.1" xmlns="http://www.w3.org/2000/svg" xmlns:xlink="http://www.w3.org/1999/xlink" preserveAspectRatio="xMidYMid meet" viewBox="0 0 640 640" width="25" height="25"><defs><path d="M479.49 148.16C490.53 148.16 499.49 157.11 499.49 168.16C499.49 241.19 499.49 440.26 499.49 513.29C499.49 524.34 490.53 533.29 479.49 533.29C425.72 533.29 284.42 533.29 230.65 533.29C219.6 533.29 210.65 524.34 210.65 513.29C210.65 440.26 210.65 241.19 210.65 168.16C210.65 157.11 219.6 148.16 230.65 148.16C284.42 148.16 425.72 148.16 479.49 148.16Z" id="eecbIMEhZ"></path><path d="M461.23 208.51L256.63 208.51" id="b29WsRQ7p"></path><path d="M461.23 227.5L256.63 227.5" id="a9wCK8tWye"></path><path d="M461.23 248.51L256.63 248.51" id="beSLVoYc2"></path><path d="M461.23 326.74L256.63 326.74" id="bO9GmoQr"></path><path d="M461.23 353.76L256.63 353.76" id="a2gbmSGzhd"></path><path d="M461.23 378.13L256.63 378.13" id="a1vnVpoG"></path><path d="M461.23 400.12L256.63 400.12" id="a1KJWIyhA"></path><path d="M461.23 423.13L256.63 423.13" id="b3HznZNwXK"></path><path d="M461.23 448.03L256.63 448.03" id="b2Vvq2MKqN"></path><path d="M461.23 467.03L256.63 467.03" id="bdnVzAX4F"></path><path d="M461.23 488.03L256.63 488.03" id="f7mJYbdhd"></path><path d="M290.77 265.61L407.11 265.61L407.11 309.74L290.77 309.74L290.77 265.61Z" id="aemkvrzC3"></path><path d="M267.23 74.7L273.11 75.3L278.93 76.13L284.66 77.19L290.32 78.46L295.89 79.96L301.37 81.66L306.76 83.58L312.05 85.69L317.23 88.01L322.31 90.52L327.27 93.21L332.11 96.09L336.84 99.15L341.43 102.39L345.89 105.79L350.22 109.36L354.4 113.09L358.44 116.98L362.32 121.02L366.05 125.2L369.62 129.53L373.03 133.99L376.26 138.58L379.32 143.3L382.2 148.15L384.9 153.11L387.41 158.18L389.72 163.37L391.84 168.66L393.75 174.04L395.46 179.53L396.95 185.1L398.23 190.75L399.29 196.49L400.12 202.3L400.71 208.19L401.08 214.14L401.2 220.15L401.08 226.16L400.71 232.11L400.12 237.99L399.29 243.8L398.23 249.54L396.95 255.2L395.46 260.77L393.75 266.25L391.84 271.64L389.72 276.93L387.41 282.11L384.9 287.19L382.2 292.15L379.32 296.99L376.26 301.71L373.03 306.31L369.62 310.77L366.05 315.09L362.32 319.28L358.44 323.31L354.4 327.2L350.22 330.93L345.89 334.5L341.43 337.91L336.84 341.14L332.11 344.2L327.27 347.08L322.31 349.78L317.23 352.29L312.05 354.6L306.76 356.72L301.37 358.63L295.89 360.34L290.32 361.83L284.66 363.11L278.93 364.17L273.11 364.99L267.23 365.59L261.28 365.95L255.27 366.08L249.26 365.95L243.31 365.59L237.42 364.99L231.61 364.17L225.87 363.11L220.22 361.83L214.65 360.34L209.16 358.63L203.78 356.72L198.49 354.6L193.3 352.29L188.23 349.78L183.27 347.08L178.42 344.2L173.7 341.14L169.11 337.91L164.65 334.5L160.32 330.93L156.14 327.2L152.1 323.31L148.22 319.28L144.49 315.09L140.92 310.77L137.51 306.31L134.28 301.71L131.22 296.99L128.33 292.15L125.64 287.19L123.13 282.11L120.81 276.93L118.7 271.64L116.78 266.25L115.08 260.77L113.58 255.2L112.31 249.54L111.25 243.8L110.42 237.99L109.82 232.11L109.46 226.16L109.34 220.15L109.46 214.14L109.82 208.19L110.42 202.3L111.25 196.49L112.31 190.75L113.58 185.1L115.08 179.53L116.78 174.04L118.7 168.66L120.81 163.37L123.13 158.18L125.64 153.11L128.33 148.15L131.22 143.3L134.28 138.58L137.51 133.99L140.92 129.53L144.49 125.2L148.22 121.02L152.1 116.98L156.14 113.09L160.32 109.36L164.65 105.79L169.11 102.39L173.7 99.15L178.42 96.09L183.27 93.21L188.23 90.52L193.3 88.01L198.49 85.69L203.78 83.58L209.16 81.66L214.65 79.96L220.22 78.46L225.87 77.19L231.61 76.13L237.42 75.3L243.31 74.7L249.26 74.34L255.27 74.22L261.28 74.34L267.23 74.7ZM244.5 104.19L239.76 104.67L235.08 105.34L230.47 106.19L225.91 107.22L221.43 108.42L217.01 109.8L212.68 111.34L208.42 113.04L204.25 114.9L200.16 116.92L196.16 119.1L192.26 121.41L188.46 123.88L184.77 126.48L181.17 129.22L177.69 132.1L174.32 135.1L171.07 138.23L167.95 141.48L164.94 144.85L162.07 148.33L159.33 151.92L156.72 155.62L154.26 159.42L151.94 163.32L149.77 167.31L147.75 171.4L145.89 175.57L144.18 179.83L142.64 184.17L141.27 188.58L140.06 193.07L139.04 197.62L138.19 202.24L137.52 206.92L137.04 211.66L136.75 216.45L136.65 221.29L136.75 226.12L137.04 230.91L137.52 235.65L138.19 240.33L139.04 244.95L140.06 249.5L141.27 253.99L142.64 258.4L144.18 262.74L145.89 267L147.75 271.17L149.77 275.26L151.94 279.25L154.26 283.15L156.72 286.95L159.33 290.65L162.07 294.24L164.94 297.72L167.95 301.09L171.07 304.34L174.32 307.47L177.69 310.47L181.17 313.35L184.77 316.09L188.46 318.69L192.26 321.16L196.16 323.48L200.16 325.65L204.25 327.67L208.42 329.53L212.68 331.23L217.01 332.77L221.43 334.15L225.91 335.35L230.47 336.38L235.08 337.23L239.76 337.9L244.5 338.38L249.29 338.67L254.13 338.77L258.97 338.67L263.76 338.38L268.5 337.9L273.18 337.23L277.8 336.38L282.35 335.35L286.83 334.15L291.25 332.77L295.58 331.23L299.84 329.53L304.02 327.67L308.1 325.65L312.1 323.48L316 321.16L319.8 318.69L323.5 316.09L327.09 313.35L330.57 310.47L333.94 307.47L337.19 304.34L340.32 301.09L343.32 297.72L346.19 294.24L348.93 290.65L351.54 286.95L354 283.15L356.32 279.25L358.49 275.26L360.51 271.17L362.38 267L364.08 262.74L365.62 258.4L366.99 253.99L368.2 249.5L369.22 244.95L370.07 240.33L370.74 235.65L371.22 230.91L371.52 226.12L371.61 221.29L371.52 216.45L371.22 211.66L370.74 206.92L370.07 202.24L369.22 197.62L368.2 193.07L366.99 188.58L365.62 184.17L364.08 179.83L362.38 175.57L360.51 171.4L358.49 167.31L356.32 163.32L354 159.42L351.54 155.62L348.93 151.92L346.19 148.33L343.32 144.85L340.32 141.48L337.19 138.23L333.94 135.1L330.57 132.1L327.09 129.22L323.5 126.48L319.8 123.88L316 121.41L312.1 119.1L308.1 116.92L304.02 114.9L299.84 113.04L295.58 111.34L291.25 109.8L286.83 108.42L282.35 107.22L277.8 106.19L273.18 105.34L268.5 104.67L263.76 104.19L258.97 103.9L254.13 103.8L249.29 103.9L244.5 104.19Z" id="bi8MZB2By"></path><path d="M265.27 127.12L265.27 223.55" id="eZvdB5dne"></path><path d="M319.45 221.15L262.27 221.15" id="dJOFCCppz"></path></defs><g><g><g><use xlink:href="#eecbIMEhZ" opacity="1" fill="#efefef" fill-opacity="1"></use></g><g><g><use xlink:href="#b29WsRQ7p" opacity="1" fill-opacity="0" stroke="#8d8f8e" stroke-width="8" stroke-opacity="1"></use></g></g><g><g><use xlink:href="#a9wCK8tWye" opacity="1" fill-opacity="0" stroke="#8d8f8e" stroke-width="8" stroke-opacity="1"></use></g></g><g><g><use xlink:href="#beSLVoYc2" opacity="1" fill-opacity="0" stroke="#8d8f8e" stroke-width="8" stroke-opacity="1"></use></g></g><g><g><use xlink:href="#bO9GmoQr" opacity="1" fill-opacity="0" stroke="#8d8f8e" stroke-width="8" stroke-opacity="1"></use></g></g><g><g><use xlink:href="#a2gbmSGzhd" opacity="1" fill-opacity="0" stroke="#8d8f8e" stroke-width="8" stroke-opacity="1"></use></g></g><g><g><use xlink:href="#a1vnVpoG" opacity="1" fill-opacity="0" stroke="#8d8f8e" stroke-width="8" stroke-opacity="1"></use></g></g><g><g><use xlink:href="#a1KJWIyhA" opacity="1" fill-opacity="0" stroke="#8d8f8e" stroke-width="8" stroke-opacity="1"></use></g></g><g><g><use xlink:href="#b3HznZNwXK" opacity="1" fill-opacity="0" stroke="#8d8f8e" stroke-width="8" stroke-opacity="1"></use></g></g><g><g><use xlink:href="#b2Vvq2MKqN" opacity="1" fill-opacity="0" stroke="#8d8f8e" stroke-width="8" stroke-opacity="1"></use></g></g><g><g><use xlink:href="#bdnVzAX4F" opacity="1" fill-opacity="0" stroke="#8d8f8e" stroke-width="8" stroke-opacity="1"></use></g></g><g><g><use xlink:href="#f7mJYbdhd" opacity="1" fill-opacity="0" stroke="#8d8f8e" stroke-width="8" stroke-opacity="1"></use></g></g><g><use xlink:href="#aemkvrzC3" opacity="1" fill="#e1dcdc" fill-opacity="1"></use><g><use xlink:href="#aemkvrzC3" opacity="1" fill-opacity="0" stroke="#8d8f8e" stroke-width="2" stroke-opacity="1"></use></g></g><g><use xlink:href="#bi8MZB2By" opacity="1" fill="#8d8f8e" fill-opacity="1"></use><g><use xlink:href="#bi8MZB2By" opacity="1" fill-opacity="0" stroke="#95a781" stroke-width="1" stroke-opacity="1"></use></g></g><g><g><use xlink:href="#eZvdB5dne" opacity="1" fill-opacity="0" stroke="#000000" stroke-width="8" stroke-opacity="1"></use></g></g><g><g><use xlink:href="#dJOFCCppz" opacity="1" fill-opacity="0" stroke="#000000" stroke-width="8" stroke-opacity="1"></use></g></g></g></g></svg>