<?xml version="1.0" encoding="UTF-8" standalone="no"?>
<!DOCTYPE svg PUBLIC "-//W3C//DTD SVG 1.1//EN" "http://www.w3.org/Graphics/SVG/1.1/DTD/svg11.dtd">
<svg version="1.1" xmlns="http://www.w3.org/2000/svg" xmlns:xlink="http://www.w3.org/1999/xlink" preserveAspectRatio="xMidYMid meet" viewBox="127.44542772861357 104.37758112094394 354.9233038348083 339.8613569321532" width="16" height="15.31"><defs><path d="M345.4 149.86L351.28 150.46L357.1 151.29L362.83 152.35L368.49 153.62L374.06 155.12L379.54 156.83L384.93 158.74L390.22 160.86L395.4 163.17L400.48 165.68L405.44 168.38L410.28 171.26L415.01 174.32L419.6 177.55L424.06 180.96L428.39 184.53L432.57 188.26L436.61 192.14L440.49 196.18L444.22 200.36L447.79 204.69L451.2 209.15L454.43 213.74L457.49 218.46L460.37 223.31L463.07 228.27L465.58 233.35L467.89 238.53L470.01 243.82L471.92 249.21L473.63 254.69L475.12 260.26L476.4 265.92L477.46 271.65L478.29 277.46L478.88 283.35L479.25 289.3L479.37 295.31L479.25 301.32L478.88 307.27L478.29 313.15L477.46 318.97L476.4 324.7L475.12 330.36L473.63 335.93L471.92 341.41L470.01 346.8L467.89 352.09L465.58 357.27L463.07 362.35L460.37 367.31L457.49 372.16L454.43 376.88L451.2 381.47L447.79 385.93L444.22 390.26L440.49 394.44L436.61 398.48L432.57 402.36L428.39 406.09L424.06 409.66L419.6 413.07L415.01 416.3L410.28 419.36L405.44 422.24L400.48 424.94L395.4 427.45L390.22 429.76L384.93 431.88L379.54 433.79L374.06 435.5L368.49 436.99L362.83 438.27L357.1 439.33L351.28 440.16L345.4 440.75L339.45 441.12L333.44 441.24L327.43 441.12L321.48 440.75L315.59 440.16L309.78 439.33L304.05 438.27L298.39 436.99L292.82 435.5L287.34 433.79L281.95 431.88L276.66 429.76L271.48 427.45L266.4 424.94L261.44 422.24L256.59 419.36L251.87 416.3L247.28 413.07L242.82 409.66L238.49 406.09L234.31 402.36L230.27 398.48L226.39 394.44L222.66 390.26L219.09 385.93L215.68 381.47L212.45 376.88L209.39 372.16L206.51 367.31L203.81 362.35L201.3 357.27L198.99 352.09L196.87 346.8L194.96 341.41L193.25 335.93L191.75 330.36L190.48 324.7L189.42 318.97L188.59 313.15L187.99 307.27L187.63 301.32L187.51 295.31L187.63 289.3L187.99 283.35L188.59 277.46L189.42 271.65L190.48 265.92L191.75 260.26L192.09 259L218.19 268.42L217.21 272.78L216.36 277.4L215.69 282.08L215.21 286.82L214.92 291.61L214.82 296.45L214.92 301.29L215.21 306.08L215.69 310.81L216.36 315.49L217.21 320.11L218.24 324.67L219.44 329.15L220.81 333.56L222.35 337.9L224.06 342.16L225.92 346.33L227.94 350.42L230.11 354.41L232.43 358.31L234.89 362.11L237.5 365.81L240.24 369.4L243.11 372.89L246.12 376.25L249.24 379.5L252.49 382.63L255.86 385.64L259.34 388.51L262.94 391.25L266.63 393.85L270.44 396.32L274.34 398.64L278.33 400.81L282.42 402.83L286.59 404.69L290.85 406.4L295.18 407.94L299.6 409.31L304.08 410.51L308.64 411.54L313.26 412.39L317.94 413.06L322.67 413.54L327.46 413.83L332.3 413.93L337.14 413.83L341.93 413.54L346.67 413.06L351.35 412.39L355.97 411.54L360.52 410.51L365.01 409.31L369.42 407.94L373.76 406.4L378.01 404.69L382.19 402.83L386.27 400.81L390.27 398.64L394.17 396.32L397.97 393.85L401.67 391.25L405.26 388.51L408.74 385.64L412.11 382.63L415.36 379.5L418.49 376.25L421.49 372.89L424.36 369.4L427.1 365.81L429.71 362.11L432.17 358.31L434.49 354.41L436.66 350.42L438.68 346.33L440.55 342.16L442.25 337.9L443.79 333.56L445.16 329.15L446.37 324.67L447.4 320.11L448.25 315.49L448.91 310.81L449.39 306.08L449.69 301.29L449.78 296.45L449.69 291.61L449.39 286.82L448.91 282.08L448.25 277.4L447.4 272.78L446.37 268.23L445.16 263.74L443.79 259.33L442.25 254.99L440.55 250.74L438.68 246.56L436.66 242.48L434.49 238.48L432.17 234.58L429.71 230.78L427.1 227.08L424.36 223.49L421.49 220.01L418.49 216.64L415.36 213.39L412.11 210.26L408.74 207.26L405.26 204.39L401.67 201.64L397.97 199.04L394.17 196.58L390.27 194.26L386.27 192.09L382.19 190.07L378.01 188.2L373.76 186.5L369.42 184.96L365.01 183.58L360.52 182.38L355.97 181.35L351.35 180.5L346.67 179.84L341.93 179.35L337.14 179.06L332.3 178.96L327.46 179.06L322.67 179.35L317.94 179.84L313.26 180.5L308.64 181.35L304.08 182.38L299.6 183.58L295.18 184.96L290.85 186.5L286.59 188.2L282.42 190.07L278.33 192.09L274.34 194.26L270.44 196.58L266.63 199.04L262.94 201.64L259.34 204.39L255.86 207.26L252.49 210.26L249.24 213.39L246.73 216.01L220.23 203.3L222.66 200.36L226.39 196.18L230.27 192.14L234.31 188.26L238.49 184.53L242.82 180.96L247.28 177.55L251.87 174.32L256.59 171.26L261.44 168.38L266.4 165.68L271.48 163.17L276.66 160.86L281.95 158.74L287.34 156.83L292.82 155.12L298.39 153.62L304.05 152.35L309.78 151.29L315.59 150.46L321.48 149.86L327.43 149.5L333.44 149.38L339.45 149.5L345.4 149.86Z" id="a18WlHAnba"></path><path d="M327.44 213.28L327.44 309.71" id="k1dbUo1oBT"></path><path d="M381.62 307.31L324.44 307.31" id="c9btdJvOa"></path><path d="M230.81 195.52L231.69 196.83L232.63 198.11L233.61 199.35L234.65 200.55L235.73 201.7L236.85 202.82L238.02 203.89L239.22 204.91L240.47 205.89L241.75 206.82L243.07 207.71L244.43 208.54L245.82 209.32L247.23 210.05L248.68 210.73L250.16 211.36L250.9 211.64L247.29 216.11L264.57 230.04L207.91 244.38L209.92 185.97L227.24 199.94L230.81 195.52Z" id="d3QpsFotzq"></path><path d="" id="hka3z7muA"></path></defs><g><g><use xlink:href="#a18WlHAnba" opacity="1" fill="#1efcc3" fill-opacity="1"></use><g><use xlink:href="#a18WlHAnba" opacity="1" fill-opacity="0" stroke="#95a781" stroke-width="1" stroke-opacity="1"></use></g></g><g><g><use xlink:href="#k1dbUo1oBT" opacity="1" fill-opacity="0" stroke="#1efcc3" stroke-width="8" stroke-opacity="1"></use></g></g><g><g><use xlink:href="#c9btdJvOa" opacity="1" fill-opacity="0" stroke="#1efcc3" stroke-width="8" stroke-opacity="1"></use></g></g><g><use xlink:href="#d3QpsFotzq" opacity="1" fill="#1efcc3" fill-opacity="1"></use></g><g><g><use xlink:href="#hka3z7muA" opacity="1" fill-opacity="0" stroke="#efefef" stroke-width="8" stroke-opacity="1"></use></g></g></g></svg>