<?xml version="1.0" encoding="UTF-8" standalone="no"?>
<!DOCTYPE svg PUBLIC "-//W3C//DTD SVG 1.1//EN" "http://www.w3.org/Graphics/SVG/1.1/DTD/svg11.dtd">
<svg version="1.1" xmlns="http://www.w3.org/2000/svg" xmlns:xlink="http://www.w3.org/1999/xlink" preserveAspectRatio="xMidYMid meet" viewBox="0 0 640 640" width="25" height="25"><defs><path d="M485.56 154.24C496.61 154.24 505.56 163.19 505.56 174.24C505.56 247.26 505.56 446.34 505.56 519.37C505.56 530.41 496.61 539.37 485.56 539.37C431.8 539.37 290.49 539.37 236.73 539.37C225.68 539.37 216.73 530.41 216.73 519.37C216.73 446.34 216.73 247.26 216.73 174.24C216.73 163.19 225.68 154.24 236.73 154.24C290.49 154.24 431.8 154.24 485.56 154.24Z" id="jbe2SVWta"></path><path d="M467.3 214.58L262.71 214.58" id="clnIM4wZ6"></path><path d="M467.3 233.58L262.71 233.58" id="bhYMOd20I"></path><path d="M467.3 254.58L262.71 254.58" id="jRkLyKCft"></path><path d="M467.3 332.81L262.71 332.81" id="cksHez2yL"></path><path d="M467.3 359.84L262.71 359.84" id="d2CHw9YLS8"></path><path d="M467.3 384.2L262.71 384.2" id="bbmOc5GmK"></path><path d="M467.3 406.2L262.71 406.2" id="b2w46OlTxH"></path><path d="M467.3 429.2L262.71 429.2" id="f6GTmUizu"></path><path d="M467.3 454.11L262.71 454.11" id="afjzxEue2"></path><path d="M467.3 473.11L262.71 473.11" id="a1gu3csenH"></path><path d="M467.3 494.11L262.71 494.11" id="a5tVuzeS4X"></path><path d="M296.85 271.69L413.19 271.69L413.19 315.82L296.85 315.82L296.85 271.69Z" id="aCQkFTbfu"></path><path d="M273.31 80.78L279.19 81.38L285 82.21L290.74 83.26L296.4 84.54L301.97 86.03L307.45 87.74L312.84 89.65L318.12 91.77L323.31 94.09L328.38 96.59L333.35 99.29L338.19 102.17L342.91 105.23L347.51 108.47L351.97 111.87L356.29 115.44L360.48 119.17L364.51 123.06L368.4 127.09L372.13 131.28L375.7 135.6L379.1 140.06L382.34 144.66L385.4 149.38L388.28 154.22L390.98 159.19L393.48 164.26L395.8 169.44L397.92 174.73L399.83 180.12L401.54 185.6L403.03 191.17L404.31 196.83L405.36 202.57L406.19 208.38L406.79 214.26L407.15 220.21L407.27 226.22L407.15 232.24L406.79 238.19L406.19 244.07L405.36 249.88L404.31 255.62L403.03 261.28L401.54 266.85L399.83 272.33L397.92 277.72L395.8 283L393.48 288.19L390.98 293.26L388.28 298.23L385.4 303.07L382.34 307.79L379.1 312.38L375.7 316.85L372.13 321.17L368.4 325.35L364.51 329.39L360.48 333.28L356.29 337.01L351.97 340.58L347.51 343.98L342.91 347.22L338.19 350.28L333.35 353.16L328.38 355.85L323.31 358.36L318.12 360.68L312.84 362.79L307.45 364.71L301.97 366.42L296.4 367.91L290.74 369.19L285 370.24L279.19 371.07L273.31 371.67L267.36 372.03L261.35 372.15L255.33 372.03L249.38 371.67L243.5 371.07L237.69 370.24L231.95 369.19L226.29 367.91L220.72 366.42L215.24 364.71L209.85 362.79L204.57 360.68L199.38 358.36L194.31 355.85L189.34 353.16L184.5 350.28L179.78 347.22L175.18 343.98L170.72 340.58L166.4 337.01L162.21 333.28L158.18 329.39L154.29 325.35L150.56 321.17L146.99 316.85L143.59 312.38L140.35 307.79L137.29 303.07L134.41 298.23L131.71 293.26L129.21 288.19L126.89 283L124.77 277.72L122.86 272.33L121.15 266.85L119.66 261.28L118.38 255.62L117.33 249.88L116.5 244.07L115.9 238.19L115.54 232.24L115.42 226.22L115.54 220.21L115.9 214.26L116.5 208.38L117.33 202.57L118.38 196.83L119.66 191.17L121.15 185.6L122.86 180.12L124.77 174.73L126.89 169.44L129.21 164.26L131.71 159.19L134.41 154.22L137.29 149.38L140.35 144.66L143.59 140.06L146.99 135.6L150.56 131.28L154.29 127.09L158.18 123.06L162.21 119.17L166.4 115.44L170.72 111.87L175.18 108.47L179.78 105.23L184.5 102.17L189.34 99.29L194.31 96.59L199.38 94.09L204.57 91.77L209.85 89.65L215.24 87.74L220.72 86.03L226.29 84.54L231.95 83.26L237.69 82.21L243.5 81.38L249.38 80.78L255.33 80.42L261.35 80.29L267.36 80.42L273.31 80.78ZM250.58 110.27L245.84 110.75L241.16 111.42L236.54 112.27L231.99 113.3L227.5 114.5L223.09 115.87L218.75 117.41L214.5 119.12L210.32 120.98L206.24 123L202.24 125.17L198.34 127.49L194.54 129.95L190.84 132.56L187.25 135.3L183.77 138.17L180.4 141.18L177.15 144.31L174.02 147.56L171.02 150.92L168.15 154.4L165.4 158L162.8 161.7L160.34 165.5L158.02 169.4L155.85 173.39L153.83 177.48L151.96 181.65L150.26 185.91L148.72 190.25L147.34 194.66L146.14 199.14L145.11 203.7L144.26 208.32L143.6 213L143.11 217.73L142.82 222.52L142.72 227.36L142.82 232.2L143.11 236.99L143.6 241.73L144.26 246.41L145.11 251.03L146.14 255.58L147.34 260.07L148.72 264.48L150.26 268.82L151.96 273.07L153.83 277.25L155.85 281.33L158.02 285.33L160.34 289.23L162.8 293.03L165.4 296.73L168.15 300.32L171.02 303.8L174.02 307.17L177.15 310.42L180.4 313.55L183.77 316.55L187.25 319.42L190.84 322.17L194.54 324.77L198.34 327.23L202.24 329.55L206.24 331.72L210.32 333.74L214.5 335.61L218.75 337.31L223.09 338.85L227.5 340.23L231.99 341.43L236.54 342.46L241.16 343.31L245.84 343.97L250.58 344.46L255.37 344.75L260.21 344.85L265.05 344.75L269.84 344.46L274.57 343.97L279.25 343.31L283.87 342.46L288.43 341.43L292.91 340.23L297.32 338.85L301.66 337.31L305.92 335.61L310.09 333.74L314.18 331.72L318.17 329.55L322.07 327.23L325.87 324.77L329.57 322.17L333.16 319.42L336.65 316.55L340.01 313.55L343.26 310.42L346.39 307.17L349.4 303.8L352.27 300.32L355.01 296.73L357.61 293.03L360.08 289.23L362.4 285.33L364.57 281.33L366.59 277.25L368.45 273.07L370.16 268.82L371.7 264.48L373.07 260.07L374.27 255.58L375.3 251.03L376.15 246.41L376.82 241.73L377.3 236.99L377.59 232.2L377.69 227.36L377.59 222.52L377.3 217.73L376.82 213L376.15 208.32L375.3 203.7L374.27 199.14L373.07 194.66L371.7 190.25L370.16 185.91L368.45 181.65L366.59 177.48L364.57 173.39L362.4 169.4L360.08 165.5L357.61 161.7L355.01 158L352.27 154.4L349.4 150.92L346.39 147.56L343.26 144.31L340.01 141.18L336.65 138.17L333.16 135.3L329.57 132.56L325.87 129.95L322.07 127.49L318.17 125.17L314.18 123L310.09 120.98L305.92 119.12L301.66 117.41L297.32 115.87L292.91 114.5L288.43 113.3L283.87 112.27L279.25 111.42L274.57 110.75L269.84 110.27L265.05 109.98L260.21 109.88L255.37 109.98L250.58 110.27Z" id="abgKZ2tvd"></path><path d="M271.35 133.19L271.35 229.63" id="c3qMxdgd16"></path><path d="M325.52 227.22L268.35 227.22" id="aPIBDPwAN"></path></defs><g><g><g><use xlink:href="#jbe2SVWta" opacity="1" fill="#efefef" fill-opacity="1"></use></g><g><g><use xlink:href="#clnIM4wZ6" opacity="1" fill-opacity="0" stroke="#20f5a7" stroke-width="8" stroke-opacity="1"></use></g></g><g><g><use xlink:href="#bhYMOd20I" opacity="1" fill-opacity="0" stroke="#20f5a7" stroke-width="8" stroke-opacity="1"></use></g></g><g><g><use xlink:href="#jRkLyKCft" opacity="1" fill-opacity="0" stroke="#20f5a7" stroke-width="8" stroke-opacity="1"></use></g></g><g><g><use xlink:href="#cksHez2yL" opacity="1" fill-opacity="0" stroke="#20f5a7" stroke-width="8" stroke-opacity="1"></use></g></g><g><g><use xlink:href="#d2CHw9YLS8" opacity="1" fill-opacity="0" stroke="#20f5a7" stroke-width="8" stroke-opacity="1"></use></g></g><g><g><use xlink:href="#bbmOc5GmK" opacity="1" fill-opacity="0" stroke="#20f5a7" stroke-width="8" stroke-opacity="1"></use></g></g><g><g><use xlink:href="#b2w46OlTxH" opacity="1" fill-opacity="0" stroke="#20f5a7" stroke-width="8" stroke-opacity="1"></use></g></g><g><g><use xlink:href="#f6GTmUizu" opacity="1" fill-opacity="0" stroke="#20f5a7" stroke-width="8" stroke-opacity="1"></use></g></g><g><g><use xlink:href="#afjzxEue2" opacity="1" fill-opacity="0" stroke="#20f5a7" stroke-width="8" stroke-opacity="1"></use></g></g><g><g><use xlink:href="#a1gu3csenH" opacity="1" fill-opacity="0" stroke="#20f5a7" stroke-width="8" stroke-opacity="1"></use></g></g><g><g><use xlink:href="#a5tVuzeS4X" opacity="1" fill-opacity="0" stroke="#20f5a7" stroke-width="8" stroke-opacity="1"></use></g></g><g><use xlink:href="#aCQkFTbfu" opacity="1" fill="#e1dcdc" fill-opacity="1"></use><g><use xlink:href="#aCQkFTbfu" opacity="1" fill-opacity="0" stroke="#20f5a7" stroke-width="2" stroke-opacity="1"></use></g></g><g><use xlink:href="#abgKZ2tvd" opacity="1" fill="#20f5a7" fill-opacity="1"></use></g><g><g><use xlink:href="#c3qMxdgd16" opacity="1" fill-opacity="0" stroke="#000000" stroke-width="8" stroke-opacity="1"></use></g></g><g><g><use xlink:href="#aPIBDPwAN" opacity="1" fill-opacity="0" stroke="#000000" stroke-width="8" stroke-opacity="1"></use></g></g></g></g></svg>