<?xml version="1.0" encoding="UTF-8" standalone="no"?>
<!DOCTYPE svg PUBLIC "-//W3C//DTD SVG 1.1//EN" "http://www.w3.org/Graphics/SVG/1.1/DTD/svg11.dtd">
<svg version="1.1" xmlns="http://www.w3.org/2000/svg" xmlns:xlink="http://www.w3.org/1999/xlink" preserveAspectRatio="xMidYMid meet" viewBox="0 0 640 640" width="25" height="25"><defs><path d="M388.29 148.22C399.33 148.22 408.29 157.17 408.29 168.22C408.29 241.24 408.29 440.32 408.29 513.35C408.29 524.4 399.33 533.35 388.29 533.35C334.52 533.35 193.22 533.35 139.45 533.35C128.41 533.35 119.45 524.4 119.45 513.35C119.45 440.32 119.45 241.24 119.45 168.22C119.45 157.17 128.41 148.22 139.45 148.22C193.22 148.22 334.52 148.22 388.29 148.22Z" id="d8RdwZuQUw"></path><path d="M370.03 208.57L165.44 208.57" id="eJJx7MyVp"></path><path d="M370.03 227.56L165.44 227.56" id="b5yxac5hzR"></path><path d="M370.03 248.57L165.44 248.57" id="a1wth4noAn"></path><path d="M370.03 326.8L165.44 326.8" id="b7LSysUu1V"></path><path d="M370.03 353.82L165.44 353.82" id="a15pc1tdY"></path><path d="M370.03 378.19L165.44 378.19" id="acmVReOKc"></path><path d="M370.03 400.18L165.44 400.18" id="caJ8j91SiB"></path><path d="M370.03 423.19L165.44 423.19" id="ai03exNFK"></path><path d="M370.03 448.09L165.44 448.09" id="b1IN9CGrrF"></path><path d="M370.03 467.09L165.44 467.09" id="eG40fVjKt"></path><path d="M370.03 488.09L165.44 488.09" id="a1VcgFmka9"></path><path d="M199.57 265.67L315.91 265.67L315.91 309.8L199.57 309.8L199.57 265.67Z" id="a3n8kvqqQc"></path><path d="M176.03 74.76L181.92 75.36L187.73 76.19L193.47 77.24L199.12 78.52L204.69 80.02L210.17 81.72L215.56 83.64L220.85 85.75L226.03 88.07L231.11 90.58L236.07 93.27L240.92 96.15L245.64 99.21L250.23 102.45L254.69 105.85L259.02 109.42L263.2 113.15L267.24 117.04L271.12 121.08L274.85 125.26L278.42 129.58L281.83 134.05L285.06 138.64L288.12 143.36L291 148.21L293.7 153.17L296.21 158.24L298.52 163.43L300.64 168.72L302.56 174.1L304.26 179.58L305.76 185.16L307.03 190.81L308.09 196.55L308.92 202.36L309.52 208.25L309.88 214.2L310 220.21L309.88 226.22L309.52 232.17L308.92 238.05L308.09 243.86L307.03 249.6L305.76 255.26L304.26 260.83L302.56 266.31L300.64 271.7L298.52 276.99L296.21 282.17L293.7 287.25L291 292.21L288.12 297.05L285.06 301.77L281.83 306.37L278.42 310.83L274.85 315.15L271.12 319.34L267.24 323.37L263.2 327.26L259.02 330.99L254.69 334.56L250.23 337.96L245.64 341.2L240.92 344.26L236.07 347.14L231.11 349.84L226.03 352.35L220.85 354.66L215.56 356.78L210.17 358.69L204.69 360.4L199.12 361.89L193.47 363.17L187.73 364.22L181.92 365.05L176.03 365.65L170.08 366.01L164.07 366.14L158.06 366.01L152.11 365.65L146.23 365.05L140.41 364.22L134.68 363.17L129.02 361.89L123.45 360.4L117.97 358.69L112.58 356.78L107.29 354.66L102.11 352.35L97.03 349.84L92.07 347.14L87.23 344.26L82.5 341.2L77.91 337.96L73.45 334.56L69.12 330.99L64.94 327.26L60.9 323.37L57.02 319.34L53.29 315.15L49.72 310.83L46.31 306.37L43.08 301.77L40.02 297.05L37.14 292.21L34.44 287.25L31.93 282.17L29.62 276.99L27.5 271.7L25.59 266.31L23.88 260.83L22.39 255.26L21.11 249.6L20.05 243.86L19.22 238.05L18.63 232.17L18.26 226.22L18.14 220.21L18.26 214.2L18.63 208.25L19.22 202.36L20.05 196.55L21.11 190.81L22.39 185.16L23.88 179.58L25.59 174.1L27.5 168.72L29.62 163.43L31.93 158.24L34.44 153.17L37.14 148.21L40.02 143.36L43.08 138.64L46.31 134.05L49.72 129.58L53.29 125.26L57.02 121.08L60.9 117.04L64.94 113.15L69.12 109.42L73.45 105.85L77.91 102.45L82.5 99.21L87.23 96.15L92.07 93.27L97.03 90.58L102.11 88.07L107.29 85.75L112.58 83.64L117.97 81.72L123.45 80.02L129.02 78.52L134.68 77.24L140.41 76.19L146.23 75.36L152.11 74.76L158.06 74.4L164.07 74.28L170.08 74.4L176.03 74.76ZM153.3 104.25L148.57 104.73L143.89 105.4L139.27 106.25L134.71 107.28L130.23 108.48L125.82 109.85L121.48 111.4L117.22 113.1L113.05 114.96L108.96 116.98L104.97 119.15L101.07 121.47L97.27 123.94L93.57 126.54L89.98 129.28L86.49 132.16L83.13 135.16L79.88 138.29L76.75 141.54L73.74 144.91L70.87 148.39L68.13 151.98L65.53 155.68L63.06 159.48L60.74 163.38L58.57 167.37L56.55 171.46L54.69 175.63L52.98 179.89L51.44 184.23L50.07 188.64L48.87 193.13L47.84 197.68L46.99 202.3L46.32 206.98L45.84 211.71L45.55 216.5L45.45 221.34L45.55 226.18L45.84 230.97L46.32 235.71L46.99 240.39L47.84 245.01L48.87 249.56L50.07 254.05L51.44 258.46L52.98 262.8L54.69 267.06L56.55 271.23L58.57 275.32L60.74 279.31L63.06 283.21L65.53 287.01L68.13 290.71L70.87 294.3L73.74 297.78L76.75 301.15L79.88 304.4L83.13 307.53L86.49 310.53L89.98 313.41L93.57 316.15L97.27 318.75L101.07 321.22L104.97 323.53L108.96 325.71L113.05 327.73L117.22 329.59L121.48 331.29L125.82 332.83L130.23 334.21L134.71 335.41L139.27 336.44L143.89 337.29L148.57 337.96L153.3 338.44L158.09 338.73L162.93 338.83L167.77 338.73L172.56 338.44L177.3 337.96L181.98 337.29L186.6 336.44L191.15 335.41L195.64 334.21L200.05 332.83L204.39 331.29L208.64 329.59L212.82 327.73L216.9 325.71L220.9 323.53L224.8 321.22L228.6 318.75L232.3 316.15L235.89 313.41L239.37 310.53L242.74 307.53L245.99 304.4L249.12 301.15L252.12 297.78L255 294.3L257.74 290.71L260.34 287.01L262.8 283.21L265.12 279.31L267.29 275.32L269.31 271.23L271.18 267.06L272.88 262.8L274.42 258.46L275.8 254.05L277 249.56L278.03 245.01L278.88 240.39L279.54 235.71L280.03 230.97L280.32 226.18L280.42 221.34L280.32 216.5L280.03 211.71L279.54 206.98L278.88 202.3L278.03 197.68L277 193.13L275.8 188.64L274.42 184.23L272.88 179.89L271.18 175.63L269.31 171.46L267.29 167.37L265.12 163.38L262.8 159.48L260.34 155.68L257.74 151.98L255 148.39L252.12 144.91L249.12 141.54L245.99 138.29L242.74 135.16L239.37 132.16L235.89 129.28L232.3 126.54L228.6 123.94L224.8 121.47L220.9 119.15L216.9 116.98L212.82 114.96L208.64 113.1L204.39 111.4L200.05 109.85L195.64 108.48L191.15 107.28L186.6 106.25L181.98 105.4L177.3 104.73L172.56 104.25L167.77 103.96L162.93 103.86L158.09 103.96L153.3 104.25Z" id="c2iozl2DRt"></path><path d="M174.07 127.18L174.07 223.61" id="bdX2vDQZI"></path><path d="M228.25 221.21L171.07 221.21" id="a5fYDwSMAd"></path></defs><g><g><g><use xlink:href="#d8RdwZuQUw" opacity="1" fill="#efefef" fill-opacity="1"></use></g><g><g><use xlink:href="#eJJx7MyVp" opacity="1" fill-opacity="0" stroke="#20f5a7" stroke-width="8" stroke-opacity="1"></use></g></g><g><g><use xlink:href="#b5yxac5hzR" opacity="1" fill-opacity="0" stroke="#20f5a7" stroke-width="8" stroke-opacity="1"></use></g></g><g><g><use xlink:href="#a1wth4noAn" opacity="1" fill-opacity="0" stroke="#20f5a7" stroke-width="8" stroke-opacity="1"></use></g></g><g><g><use xlink:href="#b7LSysUu1V" opacity="1" fill-opacity="0" stroke="#20f5a7" stroke-width="8" stroke-opacity="1"></use></g></g><g><g><use xlink:href="#a15pc1tdY" opacity="1" fill-opacity="0" stroke="#20f5a7" stroke-width="8" stroke-opacity="1"></use></g></g><g><g><use xlink:href="#acmVReOKc" opacity="1" fill-opacity="0" stroke="#20f5a7" stroke-width="8" stroke-opacity="1"></use></g></g><g><g><use xlink:href="#caJ8j91SiB" opacity="1" fill-opacity="0" stroke="#20f5a7" stroke-width="8" stroke-opacity="1"></use></g></g><g><g><use xlink:href="#ai03exNFK" opacity="1" fill-opacity="0" stroke="#20f5a7" stroke-width="8" stroke-opacity="1"></use></g></g><g><g><use xlink:href="#b1IN9CGrrF" opacity="1" fill-opacity="0" stroke="#20f5a7" stroke-width="8" stroke-opacity="1"></use></g></g><g><g><use xlink:href="#eG40fVjKt" opacity="1" fill-opacity="0" stroke="#20f5a7" stroke-width="8" stroke-opacity="1"></use></g></g><g><g><use xlink:href="#a1VcgFmka9" opacity="1" fill-opacity="0" stroke="#20f5a7" stroke-width="8" stroke-opacity="1"></use></g></g><g><use xlink:href="#a3n8kvqqQc" opacity="1" fill="#e1dcdc" fill-opacity="1"></use><g><use xlink:href="#a3n8kvqqQc" opacity="1" fill-opacity="0" stroke="#20f5a7" stroke-width="2" stroke-opacity="1"></use></g></g><g><use xlink:href="#c2iozl2DRt" opacity="1" fill="#c2bfbf" fill-opacity="1"></use></g><g><g><use xlink:href="#bdX2vDQZI" opacity="1" fill-opacity="0" stroke="#000000" stroke-width="6" stroke-opacity="1"></use></g></g><g><g><use xlink:href="#a5fYDwSMAd" opacity="1" fill-opacity="0" stroke="#000000" stroke-width="6" stroke-opacity="1"></use></g></g></g></g></svg>