<?xml version="1.0" encoding="UTF-8" standalone="no"?>
<!DOCTYPE svg PUBLIC "-//W3C//DTD SVG 1.1//EN" "http://www.w3.org/Graphics/SVG/1.1/DTD/svg11.dtd">
<svg version="1.1" xmlns="http://www.w3.org/2000/svg" xmlns:xlink="http://www.w3.org/1999/xlink" preserveAspectRatio="xMidYMid meet" viewBox="0 0 640 640" width="35" height="35"><defs><path d="M365.28 166.46L371.1 167.29L376.83 168.35L382.49 169.62L388.06 171.12L393.54 172.83L398.93 174.74L404.22 176.86L409.4 179.17L414.48 181.68L419.44 184.38L424.28 187.26L429.01 190.32L433.6 193.55L438.06 196.96L442.39 200.53L446.57 204.26L450.61 208.14L454.49 212.18L458.22 216.36L461.79 220.69L465.2 225.15L468.43 229.74L471.49 234.46L474.37 239.31L477.07 244.27L479.58 249.35L481.89 254.53L484.01 259.82L485.92 265.21L487.63 270.69L489.12 276.26L490.4 281.92L491.46 287.65L492.29 293.46L492.88 299.35L493.25 305.3L493.37 311.31L493.25 317.32L492.88 323.27L492.29 329.15L491.46 334.97L490.4 340.7L489.12 346.36L487.63 351.93L485.92 357.41L484.01 362.8L481.89 368.09L479.58 373.27L477.07 378.35L474.37 383.31L471.49 388.16L468.43 392.88L465.2 397.47L461.79 401.93L458.22 406.26L454.49 410.44L450.61 414.48L446.57 418.36L442.39 422.09L438.06 425.66L433.6 429.07L429.01 432.3L424.28 435.36L419.44 438.24L414.48 440.94L409.4 443.45L404.22 445.76L398.93 447.88L393.54 449.79L388.06 451.5L382.49 452.99L376.83 454.27L371.1 455.33L365.28 456.16L359.4 456.75L353.45 457.12L347.44 457.24L341.43 457.12L335.48 456.75L329.59 456.16L323.78 455.33L318.05 454.27L312.39 452.99L306.82 451.5L301.34 449.79L295.95 447.88L290.66 445.76L285.48 443.45L280.4 440.94L275.44 438.24L270.59 435.36L265.87 432.3L261.28 429.07L256.82 425.66L252.49 422.09L248.31 418.36L244.27 414.48L240.39 410.44L236.66 406.26L233.09 401.93L229.68 397.47L226.45 392.88L223.39 388.16L220.51 383.31L217.81 378.35L215.3 373.27L212.99 368.09L210.87 362.8L208.96 357.41L207.25 351.93L205.75 346.36L204.48 340.7L203.42 334.97L202.59 329.15L201.99 323.27L201.63 317.32L201.51 311.31L201.63 305.3L201.99 299.35L202.59 293.46L203.42 287.65L204.48 281.92L205.75 276.26L206.09 275L232.19 284.42L231.21 288.78L230.36 293.4L229.69 298.08L229.21 302.82L228.92 307.61L228.82 312.45L228.92 317.29L229.21 322.08L229.69 326.81L230.36 331.49L231.21 336.11L232.24 340.67L233.44 345.15L234.81 349.56L236.35 353.9L238.06 358.16L239.92 362.33L241.94 366.42L244.11 370.41L246.43 374.31L248.89 378.11L251.5 381.81L254.24 385.4L257.11 388.89L260.12 392.25L263.24 395.5L266.49 398.63L269.86 401.64L273.34 404.51L276.94 407.25L280.63 409.85L284.44 412.32L288.34 414.64L292.33 416.81L296.42 418.83L300.59 420.69L304.85 422.4L309.18 423.94L313.6 425.31L318.08 426.51L322.64 427.54L327.26 428.39L331.94 429.06L336.67 429.54L341.46 429.83L346.3 429.93L351.14 429.83L355.93 429.54L360.67 429.06L365.35 428.39L369.97 427.54L374.52 426.51L379.01 425.31L383.42 423.94L387.76 422.4L392.01 420.69L396.19 418.83L400.27 416.81L404.27 414.64L408.17 412.32L411.97 409.85L415.67 407.25L419.26 404.51L422.74 401.64L426.11 398.63L429.36 395.5L432.49 392.25L435.49 388.89L438.36 385.4L441.1 381.81L443.71 378.11L446.17 374.31L448.49 370.41L450.66 366.42L452.68 362.33L454.55 358.16L456.25 353.9L457.79 349.56L459.16 345.15L460.37 340.67L461.4 336.11L462.25 331.49L462.91 326.81L463.39 322.08L463.69 317.29L463.78 312.45L463.69 307.61L463.39 302.82L462.91 298.08L462.25 293.4L461.4 288.78L460.37 284.23L459.16 279.74L457.79 275.33L456.25 270.99L454.55 266.74L452.68 262.56L450.66 258.48L448.49 254.48L446.17 250.58L443.71 246.78L441.1 243.08L438.36 239.49L435.49 236.01L432.49 232.64L429.36 229.39L426.11 226.26L422.74 223.26L419.26 220.39L415.67 217.64L411.97 215.04L408.17 212.58L404.27 210.26L400.27 208.09L396.19 206.07L392.01 204.2L387.76 202.5L383.42 200.96L379.01 199.58L374.52 198.38L369.97 197.35L365.35 196.5L360.67 195.84L355.93 195.35L351.14 195.06L346.3 194.96L341.46 195.06L336.67 195.35L331.94 195.84L327.26 196.5L322.64 197.35L318.08 198.38L313.6 199.58L309.18 200.96L304.85 202.5L300.59 204.2L296.42 206.07L292.33 208.09L288.34 210.26L284.44 212.58L280.63 215.04L276.94 217.64L273.34 220.39L269.86 223.26L266.49 226.26L263.24 229.39L260.73 232.01L234.23 219.3L236.66 216.36L240.39 212.18L244.27 208.14L248.31 204.26L252.49 200.53L256.82 196.96L261.28 193.55L265.87 190.32L270.59 187.26L275.44 184.38L280.4 181.68L285.48 179.17L290.66 176.86L295.95 174.74L301.34 172.83L306.82 171.12L312.39 169.62L318.05 168.35L323.78 167.29L329.59 166.46L335.48 165.86L341.43 165.5L347.44 165.38L353.45 165.5L359.4 165.86L359.4 165.86L365.28 166.46Z" id="a1n0mHLPj"></path><path d="M341.44 229.28L341.44 325.71" id="a1dXm3yKwc"></path><path d="M395.62 323.31L338.44 323.31" id="b1GbSzSK99"></path><path d="M244.81 211.52L245.69 212.83L246.63 214.11L247.61 215.35L248.65 216.55L249.73 217.7L250.85 218.82L252.02 219.89L253.22 220.91L254.47 221.89L255.75 222.82L257.07 223.71L258.43 224.54L259.82 225.32L261.23 226.05L262.68 226.73L264.16 227.36L264.9 227.64L261.29 232.11L278.57 246.04L221.91 260.38L223.92 201.97L241.24 215.94L244.81 211.52Z" id="a1nVWBmeIW"></path><path d="" id="d2F35kwkYJ"></path></defs><g><g><g><use xlink:href="#a1n0mHLPj" opacity="1" fill="#929292" fill-opacity="1"></use><g><use xlink:href="#a1n0mHLPj" opacity="1" fill-opacity="0" stroke="#95a781" stroke-width="1" stroke-opacity="1"></use></g></g><g><use xlink:href="#a1dXm3yKwc" opacity="1" fill="#39222e" fill-opacity="1"></use><g><use xlink:href="#a1dXm3yKwc" opacity="1" fill-opacity="0" stroke="#c2c1c1" stroke-width="8" stroke-opacity="1"></use></g></g><g><use xlink:href="#b1GbSzSK99" opacity="1" fill="#39222e" fill-opacity="1"></use><g><use xlink:href="#b1GbSzSK99" opacity="1" fill-opacity="0" stroke="#c2c1c1" stroke-width="8" stroke-opacity="1"></use></g></g><g><use xlink:href="#a1nVWBmeIW" opacity="1" fill="#929292" fill-opacity="1"></use></g><g><g><use xlink:href="#d2F35kwkYJ" opacity="1" fill-opacity="0" stroke="#efefef" stroke-width="8" stroke-opacity="1"></use></g></g></g></g></svg>